{
  "accessors": [
    {
      "bufferView": 2,
      "componentType": 5126,
      "count": 10199,
      "max": [
        10.0,
        10.0,
        9.999999046325684
      ],
      "min": [
        -9.999996185302734,
        -10.0,
        -9.999995231628418
      ],
      "type": "VEC3"
    },
    {
      "bufferView": 2,
      "byteOffset": 122388,
      "componentType": 5126,
      "count": 10199,
      "max": [
        1.0,
        1.0,
        1.0
      ],
      "min": [
        -1.0,
        -1.0,
        -1.0
      ],
      "type": "VEC3"
    },
    {
      "bufferView": 1,
      "componentType": 5126,
      "count": 10199,
      "max": [
        0.9999993443489075,
        1.0
      ],
      "min": [
        -0.0,
        0.0
      ],
      "type": "VEC2"
    },
    {
      "bufferView": 0,
      "componentType": 5125,
      "count": 59400,
      "type": "SCALAR"
    },
    {
      "bufferView": 2,
      "byteOffset": 244776,
      "componentType": 5126,
      "count": 402,
      "max": [
        -4.3777570724487305,
        9.404884640171196e-15,
        0.49711012840270996
      ],
      "min": [
        -8.35463809967041,
        -9.24024938731222e-15,
        -0.49711012840270996
      ],
      "type": "VEC3"
    },
    {
      "bufferView": 2,
      "byteOffset": 249600,
      "componentType": 5126,
      "count": 402,
      "max": [
        2.317041178335425e-14,
        1.0,
        6.334584685139047e-14
      ],
      "min": [
        -2.4817233568196796e-14,
        1.0,
        -3.7058350095195425e-13
      ],
      "type": "VEC3"
    },
    {
      "bufferView": 1,
      "byteOffset": 81592,
      "componentType": 5126,
      "count": 402,
      "max": [
        1.0,
        1.0
      ],
      "min": [
        -0.0,
        0.0
      ],
      "type": "VEC2"
    },
    {
      "bufferView": 0,
      "byteOffset": 237600,
      "componentType": 5125,
      "count": 1200,
      "type": "SCALAR"
    }
  ],
  "asset": {
    "extras": {
      "author": "sparkproject3d (https://sketchfab.com/sparkproject3d)",
      "license": "CC-BY-4.0 (http://creativecommons.org/licenses/by/4.0/)",
      "source": "https://sketchfab.com/3d-models/uranus-46605e6b17d04d4fa6b5b69c2ab2643f",
      "title": "Uranus"
    },
    "generator": "Sketchfab-13.11.0",
    "version": "2.0"
  },
  "bufferViews": [
    {
      "buffer": 0,
      "byteLength": 242400,
      "name": "floatBufferViews",
      "target": 34963
    },
    {
      "buffer": 0,
      "byteLength": 84808,
      "byteOffset": 242400,
      "byteStride": 8,
      "name": "floatBufferViews",
      "target": 34962
    },
    {
      "buffer": 0,
      "byteLength": 254424,
      "byteOffset": 327208,
      "byteStride": 12,
      "name": "floatBufferViews",
      "target": 34962
    }
  ],
  "buffers": [
    {
      "byteLength": 581632,
      "uri": "scene.bin"
    }
  ],
  "extensionsRequired": [
    "KHR_materials_pbrSpecularGlossiness"
  ],
  "extensionsUsed": [
    "KHR_materials_pbrSpecularGlossiness"
  ],
  "images": [
    {
      "uri": "textures/material_diffuse.png"
    },
    {
      "uri": "textures/material_1_diffuse.png"
    }
  ],
  "materials": [
    {
      "doubleSided": true,
      "extensions": {
        "KHR_materials_pbrSpecularGlossiness": {
          "diffuseFactor": [
            1.0,
            1.0,
            1.0,
            1.0
          ],
          "diffuseTexture": {
            "index": 0
          },
          "glossinessFactor": 0.109804,
          "specularFactor": [
            0.0745098,
            0.0745098,
            0.0745098
          ]
        }
      },
      "name": "material"
    },
    {
      "alphaMode": "MASK",
      "doubleSided": true,
      "extensions": {
        "KHR_materials_pbrSpecularGlossiness": {
          "diffuseFactor": [
            1.0,
            1.0,
            1.0,
            1.0
          ],
          "diffuseTexture": {
            "index": 1
          },
          "glossinessFactor": 0.188235,
          "specularFactor": [
            0.498039,
            0.498039,
            0.498039
          ]
        }
      },
      "name": "material_1"
    }
  ],
  "meshes": [
    {
      "name": "Object_0",
      "primitives": [
        {
          "attributes": {
            "NORMAL": 1,
            "POSITION": 0,
            "TEXCOORD_0": 2
          },
          "indices": 3,
          "material": 0,
          "mode": 4
        }
      ]
    },
    {
      "name": "Object_1",
      "primitives": [
        {
          "attributes": {
            "NORMAL": 5,
            "POSITION": 4,
            "TEXCOORD_0": 6
          },
          "indices": 7,
          "material": 1,
          "mode": 4
        }
      ]
    }
  ],
  "nodes": [
    {
      "children": [
        1
      ],
      "matrix": [
        1.0,
        0.0,
        0.0,
        0.0,
        0.0,
        2.220446049250313e-16,
        -1.0,
        0.0,
        0.0,
        1.0,
        2.220446049250313e-16,
        0.0,
        0.0,
        0.0,
        0.0,
        1.0
      ],
      "name": "Sketchfab_model"
    },
    {
      "children": [
        2
      ],
      "name": "root"
    },
    {
      "children": [
        3
      ],
      "matrix": [
        1.0,
        0.0,
        0.0,
        0.0,
        0.0,
        2.220446049250313e-16,
        1.0,
        0.0,
        0.0,
        -1.0,
        2.220446049250313e-16,
        0.0,
        0.0,
        0.0,
        0.0,
        1.0
      ],
      "name": "GLTF_SceneRootNode"
    },
    {
      "children": [
        4
      ],
      "name": "root_0"
    },
    {
      "children": [
        5,
        7
      ],
      "matrix": [
        0.000685058650560677,
        0.0,
        0.0,
        0.0,
        0.0,
        0.000685058650560677,
        0.0,
        0.0,
        0.0,
        0.0,
        0.000685058650560677,
        0.0,
        0.012150096707046032,
        -0.0016249590553343296,
        0.16124984622001648,
        1.0
      ],
      "name": "node_id34_1"
    },
    {
      "children": [
        6
      ],
      "matrix": [
        0.0,
        12.530077934265137,
        0.0,
        0.0,
        -12.530077934265137,
        0.0,
        0.0,
        0.0,
        0.0,
        0.0,
        12.530078887939453,
        0.0,
        0.00023552231141366065,
        -0.00017047024448402226,
        256.0,
        1.0
      ],
      "name": "node_id30_2"
    },
    {
      "mesh": 0,
      "name": "Object_6"
    },
    {
      "children": [
        8
      ],
      "matrix": [
        0.0,
        128.7440948486328,
        0.0,
        0.0,
        -128.7440948486328,
        0.0,
        0.0,
        0.0,
        0.0,
        0.0,
        514.9764404296875,
        0.0,
        0.00023552231141366065,
        819.6102905273438,
        256.0,
        1.0
      ],
      "name": "node_id32_3"
    },
    {
      "mesh": 1,
      "name": "Object_8"
    }
  ],
  "samplers": [
    {
      "magFilter": 9729,
      "minFilter": 9987,
      "wrapS": 10497,
      "wrapT": 10497
    }
  ],
  "scene": 0,
  "scenes": [
    {
      "name": "Sketchfab_Scene",
      "nodes": [
        0
      ]
    }
  ],
  "textures": [
    {
      "sampler": 0,
      "source": 0
    },
    {
      "sampler": 0,
      "source": 1
    }
  ]
}
