{
  "accessors": [
    {
      "bufferView": 2,
      "componentType": 5126,
      "count": 3049,
      "max": [
        0.7831019759178162,
        1.0,
        0.894008994102478
      ],
      "min": [
        -0.7831019759178162,
        -1.0,
        -0.894008994102478
      ],
      "type": "VEC3"
    },
    {
      "bufferView": 2,
      "byteOffset": 36588,
      "componentType": 5126,
      "count": 3049,
      "max": [
        1.0,
        1.0,
        1.0
      ],
      "min": [
        -1.0,
        -1.0,
        -1.0
      ],
      "type": "VEC3"
    },
    {
      "bufferView": 3,
      "componentType": 5126,
      "count": 3049,
      "max": [
        0.9544695019721985,
        1.0,
        0.9999855756759644,
        1.0
      ],
      "min": [
        -0.9997673630714417,
        -0.9998658299446106,
        -0.9999954104423523,
        1.0
      ],
      "type": "VEC4"
    },
    {
      "bufferView": 1,
      "componentType": 5126,
      "count": 3049,
      "max": [
        0.9815970063209534,
        0.9871969819068909
      ],
      "min": [
        0.034770600497722626,
        0.02481910027563572
      ],
      "type": "VEC2"
    },
    {
      "bufferView": 0,
      "componentType": 5125,
      "count": 7332,
      "type": "SCALAR"
    }
  ],
  "asset": {
    "extras": {
      "author": "jocelyncrofts (https://sketchfab.com/jocelyncrofts)",
      "license": "CC-BY-4.0 (http://creativecommons.org/licenses/by/4.0/)",
      "source": "https://sketchfab.com/3d-models/road-barrier-road-closed-a991c728eedb4f11b675f47039512151",
      "title": "Road barrier \"ROAD CLOSED\""
    },
    "generator": "Sketchfab-12.67.0",
    "version": "2.0"
  },
  "bufferViews": [
    {
      "buffer": 0,
      "byteLength": 29328,
      "name": "floatBufferViews",
      "target": 34963
    },
    {
      "buffer": 0,
      "byteLength": 24392,
      "byteOffset": 29328,
      "byteStride": 8,
      "name": "floatBufferViews",
      "target": 34962
    },
    {
      "buffer": 0,
      "byteLength": 73176,
      "byteOffset": 53720,
      "byteStride": 12,
      "name": "floatBufferViews",
      "target": 34962
    },
    {
      "buffer": 0,
      "byteLength": 48784,
      "byteOffset": 126896,
      "byteStride": 16,
      "name": "floatBufferViews",
      "target": 34962
    }
  ],
  "buffers": [
    {
      "byteLength": 175680,
      "uri": "scene.bin"
    }
  ],
  "images": [
    {
      "uri": "textures/lambert1_baseColor.jpeg"
    },
    {
      "uri": "textures/lambert1_metallicRoughness.png"
    },
    {
      "uri": "textures/lambert1_normal.png"
    }
  ],
  "materials": [
    {
      "doubleSided": true,
      "name": "lambert1",
      "normalTexture": {
        "index": 2
      },
      "pbrMetallicRoughness": {
        "baseColorTexture": {
          "index": 0
        },
        "metallicRoughnessTexture": {
          "index": 1
        }
      }
    }
  ],
  "meshes": [
    {
      "name": "defaultMaterial",
      "primitives": [
        {
          "attributes": {
            "NORMAL": 1,
            "POSITION": 0,
            "TANGENT": 2,
            "TEXCOORD_0": 3
          },
          "indices": 4,
          "material": 0,
          "mode": 4
        }
      ]
    }
  ],
  "nodes": [
    {
      "children": [
        1
      ],
      "matrix": [
        -0.0601985938847065,
        2.216419069330609e-16,
        -0.9981864094734192,
        0.0,
        -0.9981864094734192,
        -1.336677299617206e-17,
        0.0601985938847065,
        0.0,
        0.0,
        1.0,
        2.220446049250313e-16,
        0.0,
        5.243803116172785e-07,
        -3.4371108181827775e-09,
        -9.420387527825369e-07,
        1.0
      ],
      "name": "Sketchfab_model"
    },
    {
      "children": [
        2
      ],
      "matrix": [
        1.0,
        0.0,
        0.0,
        0.0,
        0.0,
        -4.371139006309477e-08,
        0.999999999999999,
        0.0,
        0.0,
        -0.999999999999999,
        -4.371139006309477e-08,
        0.0,
        0.0,
        0.0,
        0.0,
        1.0
      ],
      "name": "Collada visual scene group"
    },
    {
      "children": [
        3
      ],
      "name": "polySurface14"
    },
    {
      "mesh": 0,
      "name": "defaultMaterial"
    }
  ],
  "samplers": [
    {
      "magFilter": 9729,
      "minFilter": 9987,
      "wrapS": 10497,
      "wrapT": 10497
    }
  ],
  "scene": 0,
  "scenes": [
    {
      "name": "Sketchfab_Scene",
      "nodes": [
        0
      ]
    }
  ],
  "textures": [
    {
      "sampler": 0,
      "source": 0
    },
    {
      "sampler": 0,
      "source": 1
    },
    {
      "sampler": 0,
      "source": 2
    }
  ]
}
