{
  "accessors": [
    {
      "bufferView": 2,
      "componentType": 5126,
      "count": 1598,
      "max": [
        12.856216430664063,
        12.654542922973633,
        18.108495712280273
      ],
      "min": [
        -12.855111122131348,
        -12.611913681030273,
        0.04768799990415573
      ],
      "type": "VEC3"
    },
    {
      "bufferView": 2,
      "byteOffset": 19176,
      "componentType": 5126,
      "count": 1598,
      "max": [
        0.999999463558197,
        0.9999940395355225,
        0.9999992251396179
      ],
      "min": [
        -0.999999463558197,
        -0.9999940395355225,
        -0.9999992847442627
      ],
      "type": "VEC3"
    },
    {
      "bufferView": 3,
      "componentType": 5126,
      "count": 1598,
      "max": [
        0.9999997615814209,
        1.0,
        0.9999939799308777,
        1.0
      ],
      "min": [
        -0.9999996423721313,
        -1.0,
        -0.9999938607215881,
        -1.0
      ],
      "type": "VEC4"
    },
    {
      "bufferView": 1,
      "componentType": 5126,
      "count": 1598,
      "max": [
        0.9926760196685791,
        0.9925990104675293
      ],
      "min": [
        0.006926999893039465,
        0.004883000161498785
      ],
      "type": "VEC2"
    },
    {
      "bufferView": 0,
      "componentType": 5125,
      "count": 3240,
      "type": "SCALAR"
    },
    {
      "bufferView": 2,
      "byteOffset": 38352,
      "componentType": 5126,
      "count": 2190,
      "max": [
        3.000000106112566e-06,
        19.043899536132813,
        34.15085220336914
      ],
      "min": [
        -3.000000106112566e-06,
        -21.72110939025879,
        22.49273681640625
      ],
      "type": "VEC3"
    },
    {
      "bufferView": 2,
      "byteOffset": 64632,
      "componentType": 5126,
      "count": 2190,
      "max": [
        -0.9999999403953552,
        1.3361383935261983e-05,
        2.473842187100672e-06
      ],
      "min": [
        -1.0,
        -1.0728740562626626e-06,
        -4.893550794804469e-06
      ],
      "type": "VEC3"
    },
    {
      "bufferView": 0,
      "byteOffset": 12960,
      "componentType": 5125,
      "count": 6504,
      "type": "SCALAR"
    }
  ],
  "asset": {
    "extras": {
      "author": "rajibkc (https://sketchfab.com/rajibkc)",
      "license": "CC-BY-4.0 (http://creativecommons.org/licenses/by/4.0/)",
      "source": "https://sketchfab.com/3d-models/warehouse-building-08a4f422bc634033b8023d53beaf8242",
      "title": "Warehouse Building"
    },
    "generator": "Sketchfab-12.65.0",
    "version": "2.0"
  },
  "bufferViews": [
    {
      "buffer": 0,
      "byteLength": 38976,
      "name": "floatBufferViews",
      "target": 34963
    },
    {
      "buffer": 0,
      "byteLength": 12784,
      "byteOffset": 38976,
      "byteStride": 8,
      "name": "floatBufferViews",
      "target": 34962
    },
    {
      "buffer": 0,
      "byteLength": 90912,
      "byteOffset": 51760,
      "byteStride": 12,
      "name": "floatBufferViews",
      "target": 34962
    },
    {
      "buffer": 0,
      "byteLength": 25568,
      "byteOffset": 142672,
      "byteStride": 16,
      "name": "floatBufferViews",
      "target": 34962
    }
  ],
  "buffers": [
    {
      "byteLength": 168240,
      "uri": "scene.bin"
    }
  ],
  "images": [
    {
      "uri": "textures/Material__17251_baseColor.png"
    },
    {
      "uri": "textures/Material__17251_metallicRoughness.png"
    },
    {
      "uri": "textures/Material__17251_normal.png"
    }
  ],
  "materials": [
    {
      "doubleSided": true,
      "name": "Material__17251",
      "normalTexture": {
        "index": 2
      },
      "occlusionTexture": {
        "index": 1
      },
      "pbrMetallicRoughness": {
        "baseColorTexture": {
          "index": 0
        },
        "metallicRoughnessTexture": {
          "index": 1
        }
      }
    },
    {
      "alphaMode": "BLEND",
      "doubleSided": true,
      "name": "wire_027177148",
      "pbrMetallicRoughness": {
        "baseColorFactor": [
          1.0,
          1.0,
          1.0,
          0.0
        ],
        "metallicFactor": 0.0,
        "roughnessFactor": 0.6
      }
    }
  ],
  "meshes": [
    {
      "name": "Object_0",
      "primitives": [
        {
          "attributes": {
            "NORMAL": 1,
            "POSITION": 0,
            "TANGENT": 2,
            "TEXCOORD_0": 3
          },
          "indices": 4,
          "material": 0,
          "mode": 4
        }
      ]
    },
    {
      "name": "Object_1",
      "primitives": [
        {
          "attributes": {
            "NORMAL": 6,
            "POSITION": 5
          },
          "indices": 7,
          "material": 1,
          "mode": 4
        }
      ]
    }
  ],
  "nodes": [
    {
      "children": [
        1
      ],
      "matrix": [
        1.0,
        0.0,
        0.0,
        0.0,
        0.0,
        2.220446049250313e-16,
        -1.0,
        0.0,
        0.0,
        1.0,
        2.220446049250313e-16,
        0.0,
        0.0,
        0.0,
        0.0,
        1.0
      ],
      "name": "Sketchfab_model"
    },
    {
      "children": [
        2,
        3
      ],
      "name": "b509cc9330024ec683138a624aa86d9b.obj.cleaner.materialmerger.gles"
    },
    {
      "mesh": 0,
      "name": "Object_2"
    },
    {
      "mesh": 1,
      "name": "Object_3"
    }
  ],
  "samplers": [
    {
      "magFilter": 9729,
      "minFilter": 9987,
      "wrapS": 10497,
      "wrapT": 10497
    }
  ],
  "scene": 0,
  "scenes": [
    {
      "name": "Sketchfab_Scene",
      "nodes": [
        0
      ]
    }
  ],
  "textures": [
    {
      "sampler": 0,
      "source": 0
    },
    {
      "sampler": 0,
      "source": 1
    },
    {
      "sampler": 0,
      "source": 2
    }
  ]
}
