{
  "accessors": [
    {
      "bufferView": 3,
      "componentType": 5126,
      "count": 2818,
      "max": [
        1.577309489250183,
        0.49431851506233215,
        0.08154813200235367
      ],
      "min": [
        -2.4536044597625732,
        -0.39410674571990967,
        -0.08154816925525665
      ],
      "type": "VEC3"
    },
    {
      "bufferView": 3,
      "byteOffset": 33816,
      "componentType": 5126,
      "count": 2818,
      "max": [
        1.0,
        1.0,
        1.0
      ],
      "min": [
        -1.0,
        -1.0,
        -1.0
      ],
      "type": "VEC3"
    },
    {
      "bufferView": 2,
      "componentType": 5126,
      "count": 2818,
      "max": [
        0.8750000596046448,
        1.0
      ],
      "min": [
        0.125,
        0.0
      ],
      "type": "VEC2"
    },
    {
      "bufferView": 1,
      "componentType": 5125,
      "count": 2868,
      "type": "SCALAR"
    },
    {
      "bufferView": 3,
      "byteOffset": 67632,
      "componentType": 5126,
      "count": 366,
      "max": [
        0.1637198030948639,
        0.45001843571662903,
        0.03787961229681969
      ],
      "min": [
        -0.17784669995307922,
        0.37518012523651123,
        -0.03787961229681969
      ],
      "type": "VEC3"
    },
    {
      "bufferView": 3,
      "byteOffset": 72024,
      "componentType": 5126,
      "count": 366,
      "max": [
        1.0,
        1.0,
        1.0
      ],
      "min": [
        -1.0,
        -1.0,
        -1.0
      ],
      "type": "VEC3"
    },
    {
      "bufferView": 2,
      "byteOffset": 22544,
      "componentType": 5126,
      "count": 366,
      "max": [
        1.0,
        1.0
      ],
      "min": [
        -8.940696716308594e-08,
        0.0
      ],
      "type": "VEC2"
    },
    {
      "bufferView": 1,
      "byteOffset": 11472,
      "componentType": 5125,
      "count": 426,
      "type": "SCALAR"
    },
    {
      "bufferView": 3,
      "byteOffset": 76416,
      "componentType": 5126,
      "count": 2564,
      "max": [
        2.3971285820007324,
        0.564406156539917,
        0.0735255777835846
      ],
      "min": [
        -2.484103202819824,
        -0.5271708965301514,
        -0.0735255777835846
      ],
      "type": "VEC3"
    },
    {
      "bufferView": 3,
      "byteOffset": 107184,
      "componentType": 5126,
      "count": 2564,
      "max": [
        1.0,
        1.0,
        1.0
      ],
      "min": [
        -1.0,
        -1.0,
        -1.0
      ],
      "type": "VEC3"
    },
    {
      "bufferView": 2,
      "byteOffset": 25472,
      "componentType": 5126,
      "count": 2564,
      "max": [
        1.0,
        1.0
      ],
      "min": [
        -8.940696716308594e-08,
        0.0
      ],
      "type": "VEC2"
    },
    {
      "bufferView": 1,
      "byteOffset": 13176,
      "componentType": 5125,
      "count": 3240,
      "type": "SCALAR"
    },
    {
      "bufferView": 3,
      "byteOffset": 137952,
      "componentType": 5126,
      "count": 1016,
      "max": [
        0.04134828969836235,
        0.3870413303375244,
        0.038321223109960556
      ],
      "min": [
        -0.1311318278312683,
        0.28221848607063293,
        -0.034373026341199875
      ],
      "type": "VEC3"
    },
    {
      "bufferView": 3,
      "byteOffset": 150144,
      "componentType": 5126,
      "count": 1016,
      "max": [
        1.0,
        0.8660265803337097,
        1.0
      ],
      "min": [
        -1.0,
        -0.8660260438919067,
        -1.0
      ],
      "type": "VEC3"
    },
    {
      "bufferView": 2,
      "byteOffset": 45984,
      "componentType": 5126,
      "count": 1016,
      "max": [
        1.0,
        1.0
      ],
      "min": [
        -8.940696716308594e-08,
        0.5
      ],
      "type": "VEC2"
    },
    {
      "bufferView": 1,
      "byteOffset": 26136,
      "componentType": 5125,
      "count": 1080,
      "type": "SCALAR"
    },
    {
      "bufferView": 3,
      "byteOffset": 162336,
      "componentType": 5126,
      "count": 126,
      "max": [
        -0.1277366280555725,
        0.37263134121894836,
        0.025841781869530678
      ],
      "min": [
        -0.13112589716911316,
        0.29662850499153137,
        -0.0218935739248991
      ],
      "type": "VEC3"
    },
    {
      "bufferView": 3,
      "byteOffset": 163848,
      "componentType": 5126,
      "count": 126,
      "max": [
        1.4029788871994242e-05,
        0.8660270571708679,
        1.0
      ],
      "min": [
        -1.0,
        -0.8660270571708679,
        -1.0
      ],
      "type": "VEC3"
    },
    {
      "bufferView": 2,
      "byteOffset": 54112,
      "componentType": 5126,
      "count": 126,
      "max": [
        1.0,
        0.5
      ],
      "min": [
        -8.940696716308594e-08,
        0.01000000536441803
      ],
      "type": "VEC2"
    },
    {
      "bufferView": 1,
      "byteOffset": 30456,
      "componentType": 5125,
      "count": 144,
      "type": "SCALAR"
    },
    {
      "bufferView": 3,
      "byteOffset": 165360,
      "componentType": 5126,
      "count": 462,
      "max": [
        0.0934559777379036,
        0.38373202085494995,
        0.03545521944761276
      ],
      "min": [
        0.041348230093717575,
        0.2855278551578522,
        -0.031507086008787155
      ],
      "type": "VEC3"
    },
    {
      "bufferView": 3,
      "byteOffset": 170904,
      "componentType": 5126,
      "count": 462,
      "max": [
        1.0,
        0.8660261034965515,
        1.0
      ],
      "min": [
        -6.420041700039292e-06,
        -0.8660256862640381,
        -1.0
      ],
      "type": "VEC3"
    },
    {
      "bufferView": 2,
      "byteOffset": 55120,
      "componentType": 5126,
      "count": 462,
      "max": [
        1.0,
        1.0
      ],
      "min": [
        -8.940696716308594e-08,
        0.01000000536441803
      ],
      "type": "VEC2"
    },
    {
      "bufferView": 1,
      "byteOffset": 31032,
      "componentType": 5125,
      "count": 468,
      "type": "SCALAR"
    },
    {
      "bufferView": 3,
      "byteOffset": 176448,
      "componentType": 5126,
      "count": 2872,
      "max": [
        2.4358251094818115,
        0.5262287855148315,
        0.12580913305282593
      ],
      "min": [
        -0.9715782403945923,
        -0.526408314704895,
        -0.07034073024988174
      ],
      "type": "VEC3"
    },
    {
      "bufferView": 3,
      "byteOffset": 210912,
      "componentType": 5126,
      "count": 2872,
      "max": [
        1.0,
        1.0,
        1.0
      ],
      "min": [
        -1.0,
        -1.0,
        -1.0
      ],
      "type": "VEC3"
    },
    {
      "bufferView": 2,
      "byteOffset": 58816,
      "componentType": 5126,
      "count": 2872,
      "max": [
        1.0,
        1.0
      ],
      "min": [
        -8.940696716308594e-08,
        0.0
      ],
      "type": "VEC2"
    },
    {
      "bufferView": 1,
      "byteOffset": 32904,
      "componentType": 5125,
      "count": 3078,
      "type": "SCALAR"
    },
    {
      "bufferView": 3,
      "byteOffset": 245376,
      "componentType": 5126,
      "count": 1799,
      "max": [
        2.3662922382354736,
        0.5250778198242188,
        0.1286110132932663
      ],
      "min": [
        -0.9600580930709839,
        -0.009756206534802914,
        -0.09045622497797012
      ],
      "type": "VEC3"
    },
    {
      "bufferView": 3,
      "byteOffset": 266964,
      "componentType": 5126,
      "count": 1799,
      "max": [
        1.0,
        1.0,
        1.0
      ],
      "min": [
        -1.0,
        -1.0,
        -1.0
      ],
      "type": "VEC3"
    },
    {
      "bufferView": 2,
      "byteOffset": 81792,
      "componentType": 5126,
      "count": 1799,
      "max": [
        1.0,
        1.0
      ],
      "min": [
        -8.940696716308594e-08,
        0.0
      ],
      "type": "VEC2"
    },
    {
      "bufferView": 1,
      "byteOffset": 45216,
      "componentType": 5125,
      "count": 2190,
      "type": "SCALAR"
    },
    {
      "bufferView": 5,
      "componentType": 5126,
      "count": 9,
      "max": [
        1.0,
        1.8875054121017456,
        1.8875056505203247,
        0.0,
        2.217869205618176e-14,
        1.8875057697296143,
        0.07752779871225357,
        0.0,
        0.9186761975288391,
        0.0,
        1.8875054121017456,
        0.0,
        0.7706784605979919,
        0.8685784339904785,
        1.1970466375350952,
        1.0
      ],
      "min": [
        -1.6429692506790161,
        -3.6751094967257814e-07,
        0.0,
        0.0,
        -1.8875056505203247,
        -1.880772352218628,
        -1.6031945943832397,
        0.0,
        -1.8875056505203247,
        -3.098550678259926e-07,
        1.1390785914500157e-07,
        0.0,
        -0.11027546972036362,
        -0.6744273900985718,
        -0.17998039722442627,
        1.0
      ],
      "type": "MAT4"
    },
    {
      "bufferView": 0,
      "componentType": 5123,
      "count": 2818,
      "type": "VEC4"
    },
    {
      "bufferView": 4,
      "componentType": 5126,
      "count": 2818,
      "max": [
        1.0,
        0.0,
        0.0,
        0.0
      ],
      "min": [
        1.0,
        0.0,
        0.0,
        0.0
      ],
      "type": "VEC4"
    },
    {
      "bufferView": 0,
      "byteOffset": 22544,
      "componentType": 5123,
      "count": 366,
      "type": "VEC4"
    },
    {
      "bufferView": 4,
      "byteOffset": 45088,
      "componentType": 5126,
      "count": 366,
      "max": [
        1.0,
        0.0,
        0.0,
        0.0
      ],
      "min": [
        1.0,
        0.0,
        0.0,
        0.0
      ],
      "type": "VEC4"
    },
    {
      "bufferView": 0,
      "byteOffset": 25472,
      "componentType": 5123,
      "count": 2564,
      "type": "VEC4"
    },
    {
      "bufferView": 4,
      "byteOffset": 50944,
      "componentType": 5126,
      "count": 2564,
      "max": [
        1.0,
        0.0,
        0.0,
        0.0
      ],
      "min": [
        1.0,
        0.0,
        0.0,
        0.0
      ],
      "type": "VEC4"
    },
    {
      "bufferView": 0,
      "byteOffset": 45984,
      "componentType": 5123,
      "count": 1016,
      "type": "VEC4"
    },
    {
      "bufferView": 4,
      "byteOffset": 91968,
      "componentType": 5126,
      "count": 1016,
      "max": [
        1.0,
        0.0,
        0.0,
        0.0
      ],
      "min": [
        1.0,
        0.0,
        0.0,
        0.0
      ],
      "type": "VEC4"
    },
    {
      "bufferView": 0,
      "byteOffset": 54112,
      "componentType": 5123,
      "count": 126,
      "type": "VEC4"
    },
    {
      "bufferView": 4,
      "byteOffset": 108224,
      "componentType": 5126,
      "count": 126,
      "max": [
        1.0,
        0.0,
        0.0,
        0.0
      ],
      "min": [
        1.0,
        0.0,
        0.0,
        0.0
      ],
      "type": "VEC4"
    },
    {
      "bufferView": 0,
      "byteOffset": 55120,
      "componentType": 5123,
      "count": 462,
      "type": "VEC4"
    },
    {
      "bufferView": 4,
      "byteOffset": 110240,
      "componentType": 5126,
      "count": 462,
      "max": [
        1.0,
        0.0,
        0.0,
        0.0
      ],
      "min": [
        1.0,
        0.0,
        0.0,
        0.0
      ],
      "type": "VEC4"
    },
    {
      "bufferView": 0,
      "byteOffset": 58816,
      "componentType": 5123,
      "count": 2872,
      "type": "VEC4"
    },
    {
      "bufferView": 4,
      "byteOffset": 117632,
      "componentType": 5126,
      "count": 2872,
      "max": [
        1.0,
        0.0,
        0.0,
        0.0
      ],
      "min": [
        1.0,
        0.0,
        0.0,
        0.0
      ],
      "type": "VEC4"
    },
    {
      "bufferView": 0,
      "byteOffset": 81792,
      "componentType": 5123,
      "count": 1799,
      "type": "VEC4"
    },
    {
      "bufferView": 4,
      "byteOffset": 163584,
      "componentType": 5126,
      "count": 1799,
      "max": [
        1.0,
        0.0,
        0.0,
        0.0
      ],
      "min": [
        1.0,
        0.0,
        0.0,
        0.0
      ],
      "type": "VEC4"
    }
  ],
  "asset": {
    "extras": {
      "author": "TastyTony (https://sketchfab.com/TastyTony)",
      "license": "CC-BY-4.0 (http://creativecommons.org/licenses/by/4.0/)",
      "source": "https://sketchfab.com/3d-models/low-poly-beretta-model-57-6669e102089b4409b94cd6aaa1b067c5",
      "title": "Low-Poly Beretta Model 57"
    },
    "generator": "Sketchfab-14.24.0",
    "version": "2.0"
  },
  "bufferViews": [
    {
      "buffer": 0,
      "byteLength": 96184,
      "byteStride": 8,
      "name": "shortBufferViews",
      "target": 34962
    },
    {
      "buffer": 0,
      "byteLength": 53976,
      "byteOffset": 96184,
      "name": "floatBufferViews",
      "target": 34963
    },
    {
      "buffer": 0,
      "byteLength": 96184,
      "byteOffset": 150160,
      "byteStride": 8,
      "name": "floatBufferViews",
      "target": 34962
    },
    {
      "buffer": 0,
      "byteLength": 288552,
      "byteOffset": 246344,
      "byteStride": 12,
      "name": "floatBufferViews",
      "target": 34962
    },
    {
      "buffer": 0,
      "byteLength": 192368,
      "byteOffset": 534896,
      "byteStride": 16,
      "name": "floatBufferViews",
      "target": 34962
    },
    {
      "buffer": 0,
      "byteLength": 576,
      "byteOffset": 727264,
      "name": "floatBufferViews"
    }
  ],
  "buffers": [
    {
      "byteLength": 727840,
      "uri": "scene.bin"
    }
  ],
  "materials": [
    {
      "doubleSided": true,
      "name": "Material.003",
      "pbrMetallicRoughness": {
        "baseColorFactor": [
          0.184469,
          0.126092,
          0.0688514,
          1.0
        ],
        "metallicFactor": 0.0
      }
    },
    {
      "doubleSided": true,
      "name": "Material.007",
      "pbrMetallicRoughness": {
        "baseColorFactor": [
          0.0549692,
          0.0530903,
          0.0493803,
          1.0
        ],
        "metallicFactor": 0.0,
        "roughnessFactor": 0.5
      }
    },
    {
      "doubleSided": true,
      "name": "Material.004",
      "pbrMetallicRoughness": {
        "baseColorFactor": [
          0.0368895,
          0.0356013,
          0.0343398,
          1.0
        ],
        "metallicFactor": 0.0
      }
    },
    {
      "doubleSided": true,
      "name": "Material",
      "pbrMetallicRoughness": {
        "baseColorFactor": [
          0.190454,
          0.127559,
          0.0558092,
          1.0
        ],
        "metallicFactor": 0.0,
        "roughnessFactor": 0.5
      }
    },
    {
      "doubleSided": true,
      "name": "Material.002",
      "pbrMetallicRoughness": {
        "baseColorFactor": [
          0.128239,
          0.113585,
          0.107118,
          1.0
        ],
        "metallicFactor": 0.0,
        "roughnessFactor": 0.5
      }
    },
    {
      "doubleSided": true,
      "name": "Material.001",
      "pbrMetallicRoughness": {
        "baseColorFactor": [
          0.139242,
          0.0857061,
          0.0552756,
          1.0
        ],
        "metallicFactor": 0.0,
        "roughnessFactor": 0.5
      }
    },
    {
      "doubleSided": true,
      "name": "Material.005",
      "pbrMetallicRoughness": {
        "baseColorFactor": [
          0.0391347,
          0.0374822,
          0.0358674,
          1.0
        ],
        "metallicFactor": 0.0
      }
    },
    {
      "doubleSided": true,
      "name": "Material.006",
      "pbrMetallicRoughness": {
        "baseColorFactor": [
          0.0549692,
          0.0527517,
          0.0505922,
          1.0
        ],
        "metallicFactor": 0.0
      }
    }
  ],
  "meshes": [
    {
      "name": "Object_0",
      "primitives": [
        {
          "attributes": {
            "JOINTS_0": 33,
            "NORMAL": 1,
            "POSITION": 0,
            "TEXCOORD_0": 2,
            "WEIGHTS_0": 34
          },
          "indices": 3,
          "material": 0,
          "mode": 4
        }
      ]
    },
    {
      "name": "Object_1",
      "primitives": [
        {
          "attributes": {
            "JOINTS_0": 35,
            "NORMAL": 5,
            "POSITION": 4,
            "TEXCOORD_0": 6,
            "WEIGHTS_0": 36
          },
          "indices": 7,
          "material": 1,
          "mode": 4
        }
      ]
    },
    {
      "name": "Object_2",
      "primitives": [
        {
          "attributes": {
            "JOINTS_0": 37,
            "NORMAL": 9,
            "POSITION": 8,
            "TEXCOORD_0": 10,
            "WEIGHTS_0": 38
          },
          "indices": 11,
          "material": 2,
          "mode": 4
        }
      ]
    },
    {
      "name": "Object_3",
      "primitives": [
        {
          "attributes": {
            "JOINTS_0": 39,
            "NORMAL": 13,
            "POSITION": 12,
            "TEXCOORD_0": 14,
            "WEIGHTS_0": 40
          },
          "indices": 15,
          "material": 3,
          "mode": 4
        }
      ]
    },
    {
      "name": "Object_4",
      "primitives": [
        {
          "attributes": {
            "JOINTS_0": 41,
            "NORMAL": 17,
            "POSITION": 16,
            "TEXCOORD_0": 18,
            "WEIGHTS_0": 42
          },
          "indices": 19,
          "material": 4,
          "mode": 4
        }
      ]
    },
    {
      "name": "Object_5",
      "primitives": [
        {
          "attributes": {
            "JOINTS_0": 43,
            "NORMAL": 21,
            "POSITION": 20,
            "TEXCOORD_0": 22,
            "WEIGHTS_0": 44
          },
          "indices": 23,
          "material": 5,
          "mode": 4
        }
      ]
    },
    {
      "name": "Object_6",
      "primitives": [
        {
          "attributes": {
            "JOINTS_0": 45,
            "NORMAL": 25,
            "POSITION": 24,
            "TEXCOORD_0": 26,
            "WEIGHTS_0": 46
          },
          "indices": 27,
          "material": 6,
          "mode": 4
        }
      ]
    },
    {
      "name": "Object_7",
      "primitives": [
        {
          "attributes": {
            "JOINTS_0": 47,
            "NORMAL": 29,
            "POSITION": 28,
            "TEXCOORD_0": 30,
            "WEIGHTS_0": 48
          },
          "indices": 31,
          "material": 7,
          "mode": 4
        }
      ]
    }
  ],
  "nodes": [
    {
      "children": [
        1
      ],
      "matrix": [
        1.0,
        0.0,
        0.0,
        0.0,
        0.0,
        2.220446049250313e-16,
        -1.0,
        0.0,
        0.0,
        1.0,
        2.220446049250313e-16,
        0.0,
        0.0,
        0.0,
        0.0,
        1.0
      ],
      "name": "Sketchfab_model"
    },
    {
      "children": [
        2
      ],
      "name": "root"
    },
    {
      "children": [
        3
      ],
      "matrix": [
        1.0,
        0.0,
        0.0,
        0.0,
        0.0,
        2.220446049250313e-16,
        1.0,
        0.0,
        0.0,
        -1.0,
        2.220446049250313e-16,
        0.0,
        0.0,
        0.0,
        0.0,
        1.0
      ],
      "name": "GLTF_SceneRootNode"
    },
    {
      "children": [
        4
      ],
      "matrix": [
        8.931757237873711e-08,
        -0.5297998189926072,
        -0.0,
        0.0,
        0.5297998189926072,
        8.931757237873711e-08,
        0.0,
        0.0,
        0.0,
        0.0,
        0.5297998189926147,
        0.0,
        0.3573114573955536,
        0.23717299103736877,
        0.0,
        1.0
      ],
      "name": "Armature_11"
    },
    {
      "children": [
        5,
        7,
        8,
        9,
        10,
        11,
        12,
        13,
        14,
        6
      ],
      "name": "GLTF_created_0"
    },
    {
      "children": [
        15
      ],
      "name": "GLTF_created_0_rootJoint"
    },
    {
      "name": "Cube.002_10"
    },
    {
      "mesh": 0,
      "name": "Object_7",
      "skin": 0
    },
    {
      "mesh": 1,
      "name": "Object_8",
      "skin": 0
    },
    {
      "mesh": 2,
      "name": "Object_9",
      "skin": 0
    },
    {
      "mesh": 3,
      "name": "Object_10",
      "skin": 0
    },
    {
      "mesh": 4,
      "name": "Object_11",
      "skin": 0
    },
    {
      "mesh": 5,
      "name": "Object_12",
      "skin": 0
    },
    {
      "mesh": 6,
      "name": "Object_13",
      "skin": 0
    },
    {
      "mesh": 7,
      "name": "Object_14",
      "skin": 0
    },
    {
      "children": [
        16,
        18,
        21,
        22
      ],
      "name": "body_9"
    },
    {
      "children": [
        17
      ],
      "name": "charginghandle_3",
      "rotation": [
        1.0097419586828951e-28,
        8.47033149202692e-22,
        -7.105429051666896e-15,
        1.0
      ],
      "scale": [
        0.9999997615814209,
        0.9999997615814209,
        0.9999997615814209
      ],
      "translation": [
        -0.19161808490753174,
        -1.0960859060287476,
        0.17998024821281433
      ]
    },
    {
      "name": "bolt_2",
      "rotation": [
        -1.0097421994241382e-28,
        2.0194841581070333e-28,
        -1.694066298405384e-21,
        1.0
      ],
      "scale": [
        0.9999998211860657,
        0.9999998211860657,
        0.9999998211860657
      ],
      "translation": [
        -0.1313951462507248,
        0.12273472547531128,
        -0.17998038232326508
      ]
    },
    {
      "children": [
        19,
        20
      ],
      "name": "mag_6",
      "rotation": [
        -0.17012393474578857,
        -0.18514123558998108,
        -0.6548759937286377,
        0.7126836776733398
      ],
      "scale": [
        0.9999999403953552,
        0.9999998807907104,
        1.0
      ],
      "translation": [
        -0.22710788249969482,
        -0.5920449495315552,
        0.0
      ]
    },
    {
      "name": "bullet_4",
      "rotation": [
        0.17012394964694977,
        0.18514126539230347,
        0.6548759341239929,
        0.7126837372779846
      ],
      "translation": [
        0.20976151525974274,
        -0.03328623250126839,
        -0.1482490450143814
      ]
    },
    {
      "name": "bullets_5",
      "rotation": [
        0.17012391984462738,
        0.18514126539230347,
        0.6548759341239929,
        0.7126837372779846
      ],
      "scale": [
        0.9999999403953552,
        1.0,
        1.0
      ],
      "translation": [
        0.2355545461177826,
        0.04221402108669281,
        -0.12162618339061737
      ]
    },
    {
      "name": "safety_7",
      "rotation": [
        -0.19405397772789001,
        0.6799580454826355,
        0.1940540224313736,
        0.6799582839012146
      ],
      "scale": [
        0.9999997615814209,
        0.9999998807907104,
        1.0
      ],
      "translation": [
        -0.11064223945140839,
        -2.0439674854278564,
        -0.11027580499649048
      ]
    },
    {
      "name": "boltrelease_8",
      "rotation": [
        -0.4999999403953552,
        0.4999999403953552,
        0.5000000596046448,
        0.5000000596046448
      ],
      "scale": [
        0.9999997019767761,
        0.9999995231628418,
        0.9999995231628418
      ],
      "translation": [
        -0.20506522059440613,
        -0.9509555101394653,
        0.106174536049366
      ]
    }
  ],
  "scene": 0,
  "scenes": [
    {
      "name": "Sketchfab_Scene",
      "nodes": [
        0
      ]
    }
  ],
  "skins": [
    {
      "inverseBindMatrices": 32,
      "joints": [
        5,
        15,
        16,
        17,
        18,
        19,
        20,
        21,
        22
      ],
      "skeleton": 5
    }
  ]
}
