{
  "accessors": [
    {
      "bufferView": 2,
      "componentType": 5126,
      "count": 769,
      "max": [
        229.05950927734375,
        1084.7547607421875,
        160.87039184570313
      ],
      "min": [
        -228.50601196289063,
        -1084.7547607421875,
        -7.9336090087890625
      ],
      "type": "VEC3"
    },
    {
      "bufferView": 2,
      "byteOffset": 9228,
      "componentType": 5126,
      "count": 769,
      "max": [
        1.0,
        1.0,
        1.0
      ],
      "min": [
        -1.0,
        -1.0,
        -1.0
      ],
      "type": "VEC3"
    },
    {
      "bufferView": 3,
      "componentType": 5126,
      "count": 769,
      "max": [
        1.0,
        1.0,
        1.0,
        1.0
      ],
      "min": [
        -1.0,
        -1.0,
        -1.0,
        -1.0
      ],
      "type": "VEC4"
    },
    {
      "bufferView": 1,
      "componentType": 5126,
      "count": 769,
      "max": [
        0.9999999403953552,
        0.8333333730697632
      ],
      "min": [
        0.034268271178007126,
        0.03085484355688095
      ],
      "type": "VEC2"
    },
    {
      "bufferView": 1,
      "byteOffset": 6152,
      "componentType": 5126,
      "count": 769,
      "max": [
        0.9999999403953552,
        0.8333333730697632
      ],
      "min": [
        0.034268271178007126,
        0.03085484355688095
      ],
      "type": "VEC2"
    },
    {
      "bufferView": 1,
      "byteOffset": 12304,
      "componentType": 5126,
      "count": 769,
      "max": [
        0.9999999403953552,
        0.8333333730697632
      ],
      "min": [
        0.034268271178007126,
        0.03085484355688095
      ],
      "type": "VEC2"
    },
    {
      "bufferView": 1,
      "byteOffset": 18456,
      "componentType": 5126,
      "count": 769,
      "max": [
        0.9999999403953552,
        0.8333333730697632
      ],
      "min": [
        0.034268271178007126,
        0.03085484355688095
      ],
      "type": "VEC2"
    },
    {
      "bufferView": 1,
      "byteOffset": 24608,
      "componentType": 5126,
      "count": 769,
      "max": [
        0.9999999403953552,
        0.8333333730697632
      ],
      "min": [
        0.034268271178007126,
        0.03085484355688095
      ],
      "type": "VEC2"
    },
    {
      "bufferView": 1,
      "byteOffset": 30760,
      "componentType": 5126,
      "count": 769,
      "max": [
        0.9999999403953552,
        0.8333333730697632
      ],
      "min": [
        0.034268271178007126,
        0.03085484355688095
      ],
      "type": "VEC2"
    },
    {
      "bufferView": 1,
      "byteOffset": 36912,
      "componentType": 5126,
      "count": 769,
      "max": [
        0.9999999403953552,
        0.8333333730697632
      ],
      "min": [
        0.034268271178007126,
        0.03085484355688095
      ],
      "type": "VEC2"
    },
    {
      "bufferView": 1,
      "byteOffset": 43064,
      "componentType": 5126,
      "count": 769,
      "max": [
        0.9999999403953552,
        0.8333333730697632
      ],
      "min": [
        0.034268271178007126,
        0.03085484355688095
      ],
      "type": "VEC2"
    },
    {
      "bufferView": 1,
      "byteOffset": 49216,
      "componentType": 5126,
      "count": 769,
      "max": [
        0.9999999403953552,
        0.8333333730697632
      ],
      "min": [
        0.034268271178007126,
        0.03085484355688095
      ],
      "type": "VEC2"
    },
    {
      "bufferView": 1,
      "byteOffset": 55368,
      "componentType": 5126,
      "count": 769,
      "max": [
        0.9999999403953552,
        0.8333333730697632
      ],
      "min": [
        0.034268271178007126,
        0.03085484355688095
      ],
      "type": "VEC2"
    },
    {
      "bufferView": 0,
      "componentType": 5125,
      "count": 1446,
      "type": "SCALAR"
    }
  ],
  "asset": {
    "extras": {
      "author": "Thunder (https://sketchfab.com/thunderpwn)",
      "license": "CC-BY-SA-4.0 (http://creativecommons.org/licenses/by-sa/4.0/)",
      "source": "https://sketchfab.com/3d-models/military-bridge-8f1135b0be6144fa94de7c430466b811",
      "title": "Military Bridge"
    },
    "generator": "Sketchfab-12.66.0",
    "version": "2.0"
  },
  "bufferViews": [
    {
      "buffer": 0,
      "byteLength": 5784,
      "name": "floatBufferViews",
      "target": 34963
    },
    {
      "buffer": 0,
      "byteLength": 61520,
      "byteOffset": 5784,
      "byteStride": 8,
      "name": "floatBufferViews",
      "target": 34962
    },
    {
      "buffer": 0,
      "byteLength": 18456,
      "byteOffset": 67304,
      "byteStride": 12,
      "name": "floatBufferViews",
      "target": 34962
    },
    {
      "buffer": 0,
      "byteLength": 12304,
      "byteOffset": 85760,
      "byteStride": 16,
      "name": "floatBufferViews",
      "target": 34962
    }
  ],
  "buffers": [
    {
      "byteLength": 98064,
      "uri": "scene.bin"
    }
  ],
  "images": [
    {
      "uri": "textures/DefaultMaterial_baseColor.png"
    },
    {
      "uri": "textures/DefaultMaterial_metallicRoughness.png"
    },
    {
      "uri": "textures/DefaultMaterial_normal.png"
    }
  ],
  "materials": [
    {
      "doubleSided": true,
      "name": "DefaultMaterial",
      "normalTexture": {
        "index": 2
      },
      "pbrMetallicRoughness": {
        "baseColorTexture": {
          "index": 0
        },
        "metallicRoughnessTexture": {
          "index": 1
        }
      }
    }
  ],
  "meshes": [
    {
      "name": "Cube_DefaultMaterial_0",
      "primitives": [
        {
          "attributes": {
            "NORMAL": 1,
            "POSITION": 0,
            "TANGENT": 2,
            "TEXCOORD_0": 3,
            "TEXCOORD_1": 4,
            "TEXCOORD_2": 5,
            "TEXCOORD_3": 6,
            "TEXCOORD_4": 7,
            "TEXCOORD_5": 8,
            "TEXCOORD_6": 9,
            "TEXCOORD_7": 10,
            "TEXCOORD_8": 11,
            "TEXCOORD_9": 12
          },
          "indices": 13,
          "material": 0,
          "mode": 4
        }
      ]
    }
  ],
  "nodes": [
    {
      "children": [
        1
      ],
      "matrix": [
        1.0,
        0.0,
        0.0,
        0.0,
        0.0,
        2.220446049250313e-16,
        -1.0,
        0.0,
        0.0,
        1.0,
        2.220446049250313e-16,
        0.0,
        0.0,
        0.0,
        0.0,
        1.0
      ],
      "name": "Sketchfab_model"
    },
    {
      "children": [
        2
      ],
      "matrix": [
        1.0,
        0.0,
        0.0,
        0.0,
        0.0,
        0.0,
        1.0,
        0.0,
        0.0,
        -1.0,
        0.0,
        0.0,
        0.0,
        0.0,
        0.0,
        1.0
      ],
      "name": "military_bridge.fbx"
    },
    {
      "children": [
        3
      ],
      "name": "RootNode"
    },
    {
      "children": [
        4
      ],
      "matrix": [
        1.0,
        0.0,
        0.0,
        0.0,
        0.0,
        -1.331580541386046e-07,
        -0.9999999999999911,
        0.0,
        0.0,
        0.9999999999999911,
        -1.331580541386046e-07,
        0.0,
        0.0,
        0.0,
        0.0,
        1.0
      ],
      "name": "Cube"
    },
    {
      "mesh": 0,
      "name": "Cube_DefaultMaterial_0"
    }
  ],
  "samplers": [
    {
      "magFilter": 9729,
      "minFilter": 9987,
      "wrapS": 10497,
      "wrapT": 10497
    }
  ],
  "scene": 0,
  "scenes": [
    {
      "name": "Sketchfab_Scene",
      "nodes": [
        0
      ]
    }
  ],
  "textures": [
    {
      "sampler": 0,
      "source": 0
    },
    {
      "sampler": 0,
      "source": 1
    },
    {
      "sampler": 0,
      "source": 2
    }
  ]
}
